<mxfile host="65bd71144e">
    <diagram id="t8QoFsj8MZgXzhcuyan1" name="Page-1">
        <mxGraphModel dx="952" dy="1494" grid="1" gridSize="10" guides="1" tooltips="1" connect="1" arrows="1" fold="1" page="1" pageScale="1" pageWidth="2339" pageHeight="3300" math="0" shadow="0">
            <root>
                <mxCell id="0"/>
                <mxCell id="1" parent="0"/>
                <mxCell id="2" value="DE-322" style="rounded=1;fontFamily=Alegreya Sans;fontSource=https%3A%2F%2Ffonts.googleapis.com%2Fcss%3Ffamily%3DAlegreya%2BSans;whiteSpace=wrap;" parent="1" vertex="1">
                    <mxGeometry x="590" y="130" width="60" height="30" as="geometry"/>
                </mxCell>
                <mxCell id="3" value="CH-023" style="rounded=1;fontFamily=Alegreya Sans;fontSource=https%3A%2F%2Ffonts.googleapis.com%2Fcss%3Ffamily%3DAlegreya%2BSans;whiteSpace=wrap;" parent="1" vertex="1">
                    <mxGeometry x="430" y="210" width="60" height="30" as="geometry"/>
                </mxCell>
                <mxCell id="4" value="DE-588" style="rounded=1;fontFamily=Alegreya Sans;fontSource=https%3A%2F%2Ffonts.googleapis.com%2Fcss%3Ffamily%3DAlegreya%2BSans;whiteSpace=wrap;" parent="1" vertex="1">
                    <mxGeometry x="750" y="210" width="60" height="30" as="geometry"/>
                </mxCell>
                <mxCell id="5" value="CH-003" style="rounded=1;fontFamily=Alegreya Sans;fontSource=https%3A%2F%2Ffonts.googleapis.com%2Fcss%3Ffamily%3DAlegreya%2BSans;whiteSpace=wrap;" parent="1" vertex="1">
                    <mxGeometry x="350" y="290" width="60" height="30" as="geometry"/>
                </mxCell>
                <mxCell id="6" value="CH-554" style="rounded=1;fontFamily=Alegreya Sans;fontSource=https%3A%2F%2Ffonts.googleapis.com%2Fcss%3Ffamily%3DAlegreya%2BSans;whiteSpace=wrap;" parent="1" vertex="1">
                    <mxGeometry x="510" y="290" width="60" height="30" as="geometry"/>
                </mxCell>
                <mxCell id="11" value="DE-400" style="rounded=1;fontFamily=Alegreya Sans;fontSource=https%3A%2F%2Ffonts.googleapis.com%2Fcss%3Ffamily%3DAlegreya%2BSans;whiteSpace=wrap;" parent="1" vertex="1">
                    <mxGeometry x="670" y="290" width="60" height="30" as="geometry"/>
                </mxCell>
                <mxCell id="12" value="DE-700" style="rounded=1;fontFamily=Alegreya Sans;fontSource=https%3A%2F%2Ffonts.googleapis.com%2Fcss%3Ffamily%3DAlegreya%2BSans;whiteSpace=wrap;" parent="1" vertex="1">
                    <mxGeometry x="830" y="290" width="60" height="30" as="geometry"/>
                </mxCell>
                <mxCell id="16" value=" FR-002" style="rounded=1;fontFamily=Alegreya Sans;fontSource=https%3A%2F%2Ffonts.googleapis.com%2Fcss%3Ffamily%3DAlegreya%2BSans;whiteSpace=wrap;" parent="1" vertex="1">
                    <mxGeometry x="870" y="370" width="60" height="30" as="geometry"/>
                </mxCell>
                <mxCell id="17" value="" style="endArrow=blockThin;html=1;fontFamily=Alegreya;fontSource=https%3A%2F%2Ffonts.googleapis.com%2Fcss%3Ffamily%3DAlegreya;endFill=1;" parent="1" source="2" target="3" edge="1">
                    <mxGeometry width="50" height="50" relative="1" as="geometry">
                        <mxPoint x="420" y="240" as="sourcePoint"/>
                        <mxPoint x="470" y="190" as="targetPoint"/>
                    </mxGeometry>
                </mxCell>
                <mxCell id="18" value="" style="endArrow=blockThin;html=1;fontFamily=Alegreya;fontSource=https%3A%2F%2Ffonts.googleapis.com%2Fcss%3Ffamily%3DAlegreya;endFill=1;" parent="1" source="2" target="4" edge="1">
                    <mxGeometry width="50" height="50" relative="1" as="geometry">
                        <mxPoint x="730" y="200" as="sourcePoint"/>
                        <mxPoint x="640" y="255.38461538461547" as="targetPoint"/>
                    </mxGeometry>
                </mxCell>
                <mxCell id="19" value="" style="endArrow=blockThin;html=1;fontFamily=Alegreya;fontSource=https%3A%2F%2Ffonts.googleapis.com%2Fcss%3Ffamily%3DAlegreya;endFill=1;" parent="1" source="4" target="12" edge="1">
                    <mxGeometry width="50" height="50" relative="1" as="geometry">
                        <mxPoint x="860" y="290" as="sourcePoint"/>
                        <mxPoint x="770" y="345.3846153846155" as="targetPoint"/>
                    </mxGeometry>
                </mxCell>
                <mxCell id="20" value="" style="endArrow=blockThin;html=1;fontFamily=Alegreya;fontSource=https%3A%2F%2Ffonts.googleapis.com%2Fcss%3Ffamily%3DAlegreya;endFill=1;" parent="1" source="4" target="11" edge="1">
                    <mxGeometry width="50" height="50" relative="1" as="geometry">
                        <mxPoint x="690" y="280" as="sourcePoint"/>
                        <mxPoint x="600" y="335.3846153846155" as="targetPoint"/>
                    </mxGeometry>
                </mxCell>
                <mxCell id="21" value="" style="endArrow=blockThin;html=1;fontFamily=Alegreya;fontSource=https%3A%2F%2Ffonts.googleapis.com%2Fcss%3Ffamily%3DAlegreya;endFill=1;" parent="1" source="3" target="5" edge="1">
                    <mxGeometry width="50" height="50" relative="1" as="geometry">
                        <mxPoint x="530" y="280" as="sourcePoint"/>
                        <mxPoint x="440" y="335.3846153846155" as="targetPoint"/>
                    </mxGeometry>
                </mxCell>
                <mxCell id="22" value="" style="endArrow=blockThin;html=1;fontFamily=Alegreya;fontSource=https%3A%2F%2Ffonts.googleapis.com%2Fcss%3Ffamily%3DAlegreya;endFill=1;" parent="1" source="3" target="6" edge="1">
                    <mxGeometry width="50" height="50" relative="1" as="geometry">
                        <mxPoint x="530" y="270" as="sourcePoint"/>
                        <mxPoint x="440" y="325.3846153846155" as="targetPoint"/>
                    </mxGeometry>
                </mxCell>
                <mxCell id="30" value="" style="endArrow=blockThin;html=1;fontFamily=Alegreya;fontSource=https%3A%2F%2Ffonts.googleapis.com%2Fcss%3Ffamily%3DAlegreya;endFill=1;" parent="1" source="12" target="16" edge="1">
                    <mxGeometry width="50" height="50" relative="1" as="geometry">
                        <mxPoint x="960" y="340" as="sourcePoint"/>
                        <mxPoint x="870" y="395.3846153846155" as="targetPoint"/>
                    </mxGeometry>
                </mxCell>
            </root>
        </mxGraphModel>
    </diagram>
</mxfile>
